<svg xmlns="http://www.w3.org/2000/svg" xmlns:xlink="http://www.w3.org/1999/xlink" width="181" height="130">
  <defs>
    <path id="a" d="M0 .04h180.833V116.89H0z"/>
  </defs>
  <g fill="none" fill-rule="evenodd" opacity=".395">
    <g>
      <mask id="b" fill="#fff">
        <use xlink:href="#a"/>
      </mask>
      <path fill="#FFF" d="M50.226 100.924l82.223-2.876-6.393 12.901h-73.84l-1.99-10.025zM53.94 83l14.8-36.453v38.597L53.94 83zm88.49-6.321l-67.832 5.503v-63.29L142.43 76.68zm35.473 34.27h-45.29l7.289-14.708a3.008 3.008 0 0 0-.151-2.937 2.923 2.923 0 0 0-2.568-1.366l-62.585 2.189v-5.984l75.418-6.119a2.938 2.938 0 0 0 2.557-2.057 2.997 2.997 0 0 0-.906-3.179L74.598 11.133V3.01c0-1.64-1.311-2.971-2.929-2.971-1.618 0-2.93 1.33-2.93 2.97v27.933L47.09 84.27a3.01 3.01 0 0 0 .165 2.605 2.93 2.93 0 0 0 2.129 1.467l19.357 2.804v3.186l-22.168.775c-.86.03-1.663.442-2.197 1.127a3.005 3.005 0 0 0-.574 2.428l2.439 12.287H2.93c-1.619 0-2.93 1.33-2.93 2.971s1.311 2.971 2.93 2.971h174.973c1.618 0 2.93-1.33 2.93-2.97 0-1.641-1.312-2.972-2.93-2.972z" mask="url(#b)"/>
    </g>
    <path fill="#FFF" d="M122.075 123h-56.15c-1.616 0-2.925 1.567-2.925 3.5s1.31 3.5 2.925 3.5h56.15c1.616 0 2.925-1.567 2.925-3.5s-1.31-3.5-2.925-3.5M140.855 123h-6.71c-1.737 0-3.145 1.567-3.145 3.5s1.408 3.5 3.145 3.5h6.71c1.737 0 3.145-1.567 3.145-3.5s-1.408-3.5-3.145-3.5"/>
  </g>
</svg>
