<svg xmlns="http://www.w3.org/2000/svg" xmlns:xlink="http://www.w3.org/1999/xlink" width="165" height="127">
  <defs>
    <path id="a" d="M0 0h165v127H0z"/>
  </defs>
  <g fill="none" fill-rule="evenodd" opacity=".198">
    <mask id="b" fill="#fff">
      <use xlink:href="#a"/>
    </mask>
    <path fill="#256D86" d="M82.5 19.147c.841 0 1.525.698 1.525 1.556 0 .858-.684 1.556-1.525 1.556-.84 0-1.525-.698-1.525-1.556 0-.858.684-1.556 1.525-1.556zM65.233 47.552l1.493.762c.058 6.716 4.21 11.62 11.449 13.571l2.393 2.715c.023.026.049.048.072.073a3.496 3.496 0 0 0 .192.182 4.45 4.45 0 0 0 .205.16l.035.022c.06.041.121.08.184.114l.024.013c.372.202.79.314 1.22.314a2.549 2.549 0 0 0 1.218-.313l.026-.014c.063-.035.123-.073.183-.113l.036-.024a2.55 2.55 0 0 0 .396-.34c.023-.026.05-.048.072-.075l2.393-2.714c7.238-1.95 11.391-6.855 11.45-13.572l1.492-.761c1.284-.655 1.804-2.247 1.162-3.557-.641-1.31-2.202-1.841-3.486-1.185l-2.928 1.493a2.657 2.657 0 0 0-1.436 2.371v1.495c0 4.473-2.689 7.392-7.98 8.688V37.49h2.649c1.435 0 2.598-1.186 2.598-2.65 0-1.465-1.163-2.652-2.598-2.652h-2.649v-5.02c0-.046-.004-.092-.007-.139 2.423-1.037 4.13-3.482 4.13-6.327 0-3.781-3.015-6.858-6.721-6.858-3.707 0-6.722 3.077-6.722 6.858 0 2.845 1.707 5.29 4.13 6.327-.002.047-.007.093-.007.14v5.02h-2.649c-1.435 0-2.598 1.186-2.598 2.65 0 1.465 1.163 2.651 2.598 2.651h2.65v19.366c-5.292-1.296-7.98-4.215-7.98-8.688v-1.495a2.657 2.657 0 0 0-1.437-2.37l-2.928-1.495c-1.283-.655-2.844-.124-3.487 1.186-.64 1.31-.12 2.903 1.163 3.557zM12.727 27.097l41.018-16.276c18.543-7.357 38.968-7.357 57.51 0l41.019 16.276c5.871 2.33 8.91 8.931 6.918 15.03l-8.988 27.511h-2.766c-1.435 0-2.598 1.187-2.598 2.651 0 1.465 1.163 2.652 2.598 2.652h2.04v8.895H15.522v-8.895h118c1.436 0 2.599-1.187 2.599-2.652 0-1.464-1.163-2.65-2.598-2.65H14.797L5.808 42.125c-1.991-6.098 1.047-12.699 6.919-15.029zm151.395 16.706c2.869-8.783-1.508-18.292-9.965-21.648L113.14 5.88c-19.758-7.839-41.52-7.839-61.278 0L10.843 22.155C2.386 25.511-1.991 35.02.878 43.803l9.447 28.917v12.928C7.347 90.14 6.99 94.989 9.31 99.725 17.186 115.799 54.204 127 82.5 127s65.314-11.201 73.19-27.275c2.321-4.736 1.964-9.585-1.015-14.077V72.72l9.447-28.917z" mask="url(#b)"/>
  </g>
</svg>
