<svg xmlns="http://www.w3.org/2000/svg" width="40" height="40">
  <g fill="none" fill-rule="nonzero">
    <circle cx="20" cy="20" r="20" fill="#39BBBD"/>
    <path fill="#FFF" d="M19.078 24.79l-3.914-3.892a.571.571 0 0 1-.164-.421c0-.172.055-.313.164-.422l.867-.844a.523.523 0 0 1 .41-.188c.164 0 .309.063.434.188l2.625 2.625 5.625-5.625a.595.595 0 0 1 .434-.188c.164 0 .3.063.41.188l.867.844c.11.11.164.25.164.422a.571.571 0 0 1-.164.421l-6.914 6.891a.535.535 0 0 1-.422.188.535.535 0 0 1-.422-.188z"/>
  </g>
</svg>
