<svg xmlns="http://www.w3.org/2000/svg" width="100" height="100">
  <g fill="none" fill-rule="evenodd">
    <circle cx="50" cy="50" r="50" fill="#F0F0ED" fill-rule="nonzero"/>
    <path fill="#3DB8BA" d="M89.221 75.417a6.14 6.14 0 0 1-4.973-2.571l-.631-.878-.63.878a6.143 6.143 0 0 1-4.971 2.571c-.439 0-.87-.05-1.291-.142l.817-8.68a.81.81 0 0 0-.199-.606.78.78 0 0 0-.578-.258H60.16V62.62a.785.785 0 0 0-.779-.79H47.29v-.822a1.497 1.497 0 0 0 .617.06c.065-.008 6.623-.741 13.706-.741 4.717 0 8.576.318 11.47.946a1.55 1.55 0 0 0 1.668-.74 1.593 1.593 0 0 0-.164-1.838c-.058-.069-5.907-6.95-11.95-16.706-5.53-8.934-12.362-22.18-13.502-34.555a1.569 1.569 0 0 0-1.63-1.431 1.556 1.556 0 0 0-1.274.794.77.77 0 0 0-.453.093c-13.574 7.661-19.621 18.8-22.306 26.797-3.334 9.936-2.798 18.97-.772 23.636.002.573.42 1.422 2.097 2.502.018.015.034.03.051.043.082.06.17.11.262.152.576.35 1.284.723 2.15 1.117.102.047.212.07.32.07h.004a.786.786 0 0 0 .766-.937c-.007-.11-.02-.322-.032-.631 3.814-.794 7.388-1.2 10.637-1.2 3.85 0 6.161.576 6.974.823v2.566H36.36a.773.773 0 0 0-.326.074c-.114.052-2.633 1.254-4.614 3.83H17.762a.781.781 0 0 0-.64.339.805.805 0 0 0-.09.728c.66 1.784 2.316 3.434 4.07 5.182.991.988 2.008 2.004 2.897 3.09a6.071 6.071 0 0 1-2.015.347 6.141 6.141 0 0 1-4.972-2.571l-.63-.878-.63.878a6.144 6.144 0 0 1-4.973 2.571.785.785 0 0 0-.779.79c0 .439.348.791.779.791a7.69 7.69 0 0 0 5.602-2.452 7.69 7.69 0 0 0 5.603 2.452 7.641 7.641 0 0 0 3.561-.89c.02-.011.04-.018.061-.028.034-.018.066-.04.1-.059.128-.071.255-.145.378-.225l.169-.113a11.45 11.45 0 0 0 .435-.313c.14-.11.276-.226.41-.345.028-.028.057-.054.085-.08.138-.128.274-.258.402-.399a7.71 7.71 0 0 0 4.394 2.356c.071.011.142.018.21.03.331.043.665.068 1 .068a7.69 7.69 0 0 0 5.604-2.454A7.686 7.686 0 0 0 44.396 77a7.688 7.688 0 0 0 5.602-2.454A7.686 7.686 0 0 0 55.601 77a7.692 7.692 0 0 0 5.605-2.454 7.685 7.685 0 0 0 5.6 2.454 7.687 7.687 0 0 0 5.603-2.454c.108.113.217.222.33.332a10.466 10.466 0 0 0 .342.304c.029.021.056.046.085.068a8.923 8.923 0 0 0 .372.29c.095.067.19.132.288.197.03.02.06.041.094.062.116.072.232.142.35.211a8.297 8.297 0 0 0 .644.323c.03.015.061.027.093.041a10.081 10.081 0 0 0 .34.14c.1.037.201.074.3.107.01.005.02.005.026.007.752.243 1.54.372 2.343.372a7.685 7.685 0 0 0 5.601-2.454A7.692 7.692 0 0 0 89.221 77c.43 0 .779-.354.779-.79a.785.785 0 0 0-.779-.793zM73.41 59.727c-3.426-.746-7.712-.983-11.797-.983-7.26 0-13.878.752-13.878.752 0-25.728-.151-51.918-.151-51.918C49.849 32.16 73.41 59.726 73.41 59.726zM45.93 8.933v45.254c-7.332-9.651-10.663-16.895-12.169-21.403a35.665 35.665 0 0 1-.764-2.603c2.574-7.036 6.608-14.634 12.933-21.248zM26.725 58.746v.036c.003.12.006.238.011.346l-.32-.171-.099-.057-.197-.111c-.032-.02-.066-.038-.097-.058-.18-.106-.343-.209-.488-.302a1.94 1.94 0 0 1-.072-.05c-.046-.032-.095-.063-.138-.092-.024-.02-.048-.036-.072-.054l-.117-.083c-.021-.018-.044-.033-.063-.05-.04-.029-.079-.06-.116-.09a3.336 3.336 0 0 1-.169-.14l-.038-.032c-.025-.025-.053-.05-.077-.072l-.038-.038-.06-.057c-.01-.011-.02-.023-.032-.033l-.053-.058c-.006-.009-.016-.015-.02-.022a1.756 1.756 0 0 1-.07-.086l-.038-.05-.013-.02c-.008-.013-.018-.025-.022-.035l-.01-.016c-.007-.012-.013-.02-.018-.031a.05.05 0 0 1-.006-.01l-.015-.03a.79.79 0 0 0-.069-.414c-1.971-4.315-2.507-12.999.739-22.673 2.254-6.714 6.96-15.719 16.762-22.83-4.147 5.133-7.13 10.648-9.278 15.947 0 .004-.003.005-.003.009-.173.424-.337.846-.5 1.269l-.09.24a77.556 77.556 0 0 0-3.635 12.945c-1.48 7.774-1.553 14.067-1.479 16.973zm12.231-1.892c-2.793 0-6.349.293-10.68 1.177-.037-3.078.123-8.95 1.458-15.96a77.518 77.518 0 0 1 2.377-9.314c1.723 5.397 5.523 13.42 13.82 24v.859c-1.17-.31-3.478-.762-6.975-.762zm-2.41 6.554h22.056v2.323h-4.929c.263-.238.434-.583.434-.968 0-.72-.574-1.302-1.283-1.302-.71 0-1.283.583-1.283 1.302 0 .385.17.73.435.968h-4.29c.266-.238.436-.583.436-.968 0-.72-.575-1.302-1.283-1.302s-1.283.583-1.283 1.302c0 .385.17.73.435.968h-4.716c.263-.238.433-.583.433-.968 0-.72-.575-1.302-1.283-1.302s-1.282.583-1.282 1.302c0 .385.17.73.435.968h-6.085a12.719 12.719 0 0 1 3.052-2.323zm38.667 11.318a5.913 5.913 0 0 1-.572-.337l-.037-.024c-.053-.034-.1-.072-.154-.11-.048-.035-.098-.068-.146-.106a6.11 6.11 0 0 1-1.26-1.304l-.633-.877-.629.878a6.144 6.144 0 0 1-4.974 2.571 6.143 6.143 0 0 1-4.971-2.571l-.63-.878-.63.878a6.142 6.142 0 0 1-4.974 2.571 6.144 6.144 0 0 1-4.974-2.571L50 71.968l-.63.878a6.139 6.139 0 0 1-4.973 2.571 6.144 6.144 0 0 1-4.973-2.571l-.63-.878-.629.878a6.144 6.144 0 0 1-4.973 2.571 6.144 6.144 0 0 1-4.974-2.571l-.63-.878-.63.878a5.154 5.154 0 0 1-.299.38 8.457 8.457 0 0 1-.405.44 6.626 6.626 0 0 1-.74.616l-.085.06c-.884-1.117-1.886-2.14-2.876-3.128h52.989l-.33 3.512zm.478-5.094H20.986c-.768-.795-1.455-1.568-1.943-2.323H75.907l-.216 2.323z"/>
    <path stroke="#3DB8BA" stroke-width=".75" d="M89.221 75.417a6.14 6.14 0 0 1-4.973-2.571l-.631-.878-.63.878a6.143 6.143 0 0 1-4.971 2.571c-.439 0-.87-.05-1.291-.142l.817-8.68a.81.81 0 0 0-.199-.606.78.78 0 0 0-.578-.258H60.16V62.62a.785.785 0 0 0-.779-.79H47.29v-.822a1.497 1.497 0 0 0 .617.06c.065-.008 6.623-.741 13.706-.741 4.717 0 8.576.318 11.47.946a1.55 1.55 0 0 0 1.668-.74 1.593 1.593 0 0 0-.164-1.838c-.058-.069-5.907-6.95-11.95-16.706-5.53-8.934-12.362-22.18-13.502-34.555a1.569 1.569 0 0 0-1.63-1.431 1.556 1.556 0 0 0-1.274.794.77.77 0 0 0-.453.093c-13.574 7.661-19.621 18.8-22.306 26.797-3.334 9.936-2.798 18.97-.772 23.636.002.573.42 1.422 2.097 2.502.018.015.034.03.051.043.082.06.17.11.262.152.576.35 1.284.723 2.15 1.117.102.047.212.07.32.07h.004a.786.786 0 0 0 .766-.937c-.007-.11-.02-.322-.032-.631 3.814-.794 7.388-1.2 10.637-1.2 3.85 0 6.161.576 6.974.823v2.566H36.36a.773.773 0 0 0-.326.074c-.114.052-2.633 1.254-4.614 3.83H17.762a.781.781 0 0 0-.64.339.805.805 0 0 0-.09.728c.66 1.784 2.316 3.434 4.07 5.182.991.988 2.008 2.004 2.897 3.09a6.071 6.071 0 0 1-2.015.347 6.141 6.141 0 0 1-4.972-2.571l-.63-.878-.63.878a6.144 6.144 0 0 1-4.973 2.571.785.785 0 0 0-.779.79c0 .439.348.791.779.791a7.69 7.69 0 0 0 5.602-2.452 7.69 7.69 0 0 0 5.603 2.452 7.641 7.641 0 0 0 3.561-.89c.02-.011.04-.018.061-.028.034-.018.066-.04.1-.059.128-.071.255-.145.378-.225l.169-.113a11.45 11.45 0 0 0 .435-.313c.14-.11.276-.226.41-.345.028-.028.057-.054.085-.08.138-.128.274-.258.402-.399a7.71 7.71 0 0 0 4.394 2.356c.071.011.142.018.21.03.331.043.665.068 1 .068a7.69 7.69 0 0 0 5.604-2.454A7.686 7.686 0 0 0 44.396 77a7.688 7.688 0 0 0 5.602-2.454A7.686 7.686 0 0 0 55.601 77a7.692 7.692 0 0 0 5.605-2.454 7.685 7.685 0 0 0 5.6 2.454 7.687 7.687 0 0 0 5.603-2.454c.108.113.217.222.33.332a10.466 10.466 0 0 0 .342.304c.029.021.056.046.085.068a8.923 8.923 0 0 0 .372.29c.095.067.19.132.288.197.03.02.06.041.094.062.116.072.232.142.35.211a8.297 8.297 0 0 0 .644.323c.03.015.061.027.093.041a10.081 10.081 0 0 0 .34.14c.1.037.201.074.3.107.01.005.02.005.026.007.752.243 1.54.372 2.343.372a7.685 7.685 0 0 0 5.601-2.454A7.692 7.692 0 0 0 89.221 77c.43 0 .779-.354.779-.79a.785.785 0 0 0-.779-.793zM73.41 59.727c-3.426-.746-7.712-.983-11.797-.983-7.26 0-13.878.752-13.878.752 0-25.728-.151-51.918-.151-51.918C49.849 32.16 73.41 59.726 73.41 59.726zM45.93 8.933v45.254c-7.332-9.651-10.663-16.895-12.169-21.403a35.665 35.665 0 0 1-.764-2.603c2.574-7.036 6.608-14.634 12.933-21.248zM26.725 58.746v.036c.003.12.006.238.011.346l-.32-.171-.099-.057-.197-.111c-.032-.02-.066-.038-.097-.058-.18-.106-.343-.209-.488-.302a1.94 1.94 0 0 1-.072-.05c-.046-.032-.095-.063-.138-.092-.024-.02-.048-.036-.072-.054l-.117-.083c-.021-.018-.044-.033-.063-.05-.04-.029-.079-.06-.116-.09a3.336 3.336 0 0 1-.169-.14l-.038-.032c-.025-.025-.053-.05-.077-.072l-.038-.038-.06-.057c-.01-.011-.02-.023-.032-.033l-.053-.058c-.006-.009-.016-.015-.02-.022a1.756 1.756 0 0 1-.07-.086l-.038-.05-.013-.02c-.008-.013-.018-.025-.022-.035l-.01-.016c-.007-.012-.013-.02-.018-.031a.05.05 0 0 1-.006-.01l-.015-.03a.79.79 0 0 0-.069-.414c-1.971-4.315-2.507-12.999.739-22.673 2.254-6.714 6.96-15.719 16.762-22.83-4.147 5.133-7.13 10.648-9.278 15.947 0 .004-.003.005-.003.009-.173.424-.337.846-.5 1.269l-.09.24a77.556 77.556 0 0 0-3.635 12.945c-1.48 7.774-1.553 14.067-1.479 16.973zm12.231-1.892c-2.793 0-6.349.293-10.68 1.177-.037-3.078.123-8.95 1.458-15.96a77.518 77.518 0 0 1 2.377-9.314c1.723 5.397 5.523 13.42 13.82 24v.859c-1.17-.31-3.478-.762-6.975-.762zm-2.41 6.554h22.056v2.323h-4.929c.263-.238.434-.583.434-.968 0-.72-.574-1.302-1.283-1.302-.71 0-1.283.583-1.283 1.302 0 .385.17.73.435.968h-4.29c.266-.238.436-.583.436-.968 0-.72-.575-1.302-1.283-1.302s-1.283.583-1.283 1.302c0 .385.17.73.435.968h-4.716c.263-.238.433-.583.433-.968 0-.72-.575-1.302-1.283-1.302s-1.282.583-1.282 1.302c0 .385.17.73.435.968h-6.085a12.719 12.719 0 0 1 3.052-2.323zm38.667 11.318a5.913 5.913 0 0 1-.572-.337l-.037-.024c-.053-.034-.1-.072-.154-.11-.048-.035-.098-.068-.146-.106a6.11 6.11 0 0 1-1.26-1.304l-.633-.877-.629.878a6.144 6.144 0 0 1-4.974 2.571 6.143 6.143 0 0 1-4.971-2.571l-.63-.878-.63.878a6.142 6.142 0 0 1-4.974 2.571 6.144 6.144 0 0 1-4.974-2.571L50 71.968l-.63.878a6.139 6.139 0 0 1-4.973 2.571 6.144 6.144 0 0 1-4.973-2.571l-.63-.878-.629.878a6.144 6.144 0 0 1-4.973 2.571 6.144 6.144 0 0 1-4.974-2.571l-.63-.878-.63.878a5.154 5.154 0 0 1-.299.38 8.457 8.457 0 0 1-.405.44 6.626 6.626 0 0 1-.74.616l-.085.06c-.884-1.117-1.886-2.14-2.876-3.128h52.989l-.33 3.512zm.478-5.094H20.986c-.768-.795-1.455-1.568-1.943-2.323H75.907l-.216 2.323z"/>
  </g>
</svg>
