<svg xmlns="http://www.w3.org/2000/svg" xmlns:xlink="http://www.w3.org/1999/xlink" width="100" height="100">
  <defs>
    <path id="a" d="M0 0h65v57H0z"/>
  </defs>
  <g fill="none" fill-rule="evenodd">
    <circle cx="50" cy="50" r="50" fill="#F0F0ED" fill-rule="nonzero"/>
    <g transform="translate(16 22)">
      <mask id="b" fill="#fff">
        <use xlink:href="#a"/>
      </mask>
      <path fill="#3DB8BA" d="M30.45 22.842h4.232c1.121 0 2.03.908 2.03 2.028a2.029 2.029 0 0 1-2.03 2.027h-4.689v1.42h4.71c1.121 0 2.03.907 2.03 2.028a2.029 2.029 0 0 1-2.03 2.026h-4.679a5.072 5.072 0 0 0 5.524 4.576 5.077 5.077 0 0 0 4.035-2.72 2.036 2.036 0 0 1 2.72-.932 2.03 2.03 0 0 1 .934 2.716c-2.213 4.529-7.682 6.407-12.215 4.194a9.121 9.121 0 0 1-5.12-7.834h-2.434a2.029 2.029 0 1 1 0-4.054h2.426v-1.42h-2.386a2.028 2.028 0 1 1 0-4.055h2.68c1.175-4.9 6.106-7.921 11.01-6.747a9.132 9.132 0 0 1 6.08 4.872 2.049 2.049 0 0 1-.955 2.737 2.054 2.054 0 0 1-2.74-.953 5.075 5.075 0 0 0-9.133.09zM6.093 25.266l8.718-3.367a2.028 2.028 0 1 0-1.352-3.824c-.036.014-.073.027-.11.043l-3.713 1.429C14.548 6.982 28.725.776 41.301 5.683a24.43 24.43 0 0 1 14.824 16.824 2.031 2.031 0 0 0 2.467 1.47 2.029 2.029 0 0 0 1.472-2.452C56.22 6.278 40.734-2.97 25.472.868A28.485 28.485 0 0 0 5.718 18.554L3.932 13.92a2.033 2.033 0 0 0-2.628-1.166 2.03 2.03 0 0 0-1.167 2.626l3.37 8.717a2.023 2.023 0 0 0 1.897 1.349c.24-.02.471-.08.69-.181zm58.729 15.753l-3.368-8.72a2.03 2.03 0 0 0-2.589-1.154L50.148 34.5a2.03 2.03 0 1 0 1.461 3.792l3.827-1.48C50.83 49.49 36.808 56.04 24.115 51.44A24.433 24.433 0 0 1 8.753 34.47a2.033 2.033 0 0 0-3.938 1.013c3.851 15.25 19.35 24.493 34.616 20.644a28.494 28.494 0 0 0 19.902-18.12l1.735 4.502a2.035 2.035 0 0 0 2.629 1.167 2.032 2.032 0 0 0 1.167-2.626l-.042-.031z" mask="url(#b)"/>
    </g>
  </g>
</svg>
