<svg xmlns="http://www.w3.org/2000/svg" width="100" height="100">
  <g fill="none" fill-rule="evenodd">
    <circle cx="50" cy="50" r="50" fill="#F0F0ED" fill-rule="nonzero"/>
    <g fill="#3DB8BA">
      <path d="M22.155 55.23a2 2 0 1 1 3.692 1.541 2 2 0 0 1-3.692-1.54"/>
      <path d="M66.63 29.167l-7.039 5.574a5.215 5.215 0 0 0-2.012 3.576 3.132 3.132 0 0 0 0 1.248l-7.626.167-2.263.748-8.8-2.412c.084-.915 0-1.83-.334-2.746-.587-1.33-1.593-2.412-2.934-2.91L27.325 29 14 60.612l8.297 3.41c.67.25 1.425.417 2.096.417.67 0 1.424-.167 2.095-.416a5.488 5.488 0 0 0 1.926-1.415l17.936 13.56a3.902 3.902 0 0 0 2.43.832h.586c1.09-.167 2.011-.665 2.682-1.58.335-.416.586-.916.67-1.414l1.173.832a3.909 3.909 0 0 0 2.432.83h.585c1.09-.166 2.012-.664 2.683-1.579.335-.416.586-.916.67-1.497a3.927 3.927 0 0 0 1.927.498h.588c1.088-.166 2.01-.665 2.681-1.58.418-.582.755-1.249.755-1.997.25 0 .418.084.67.084h.587c1.089-.167 2.011-.667 2.68-1.581.672-.832.923-1.913.755-2.996 0-.165-.083-.248-.083-.415l3.1-3.161a5.513 5.513 0 0 0 3.688 1.414c1.173 0 2.346-.416 3.352-1.164L88 56.119 66.63 29.167zM50.372 42.31l8.13-.25c.083.083.083.166.167.25l13.66 17.137-2.849 2.912-.084-.084-11.733-8.902c1.76-.831 3.017-2.495 3.185-4.491.084-.667-.504-1.248-1.173-1.331-.671-.084-1.257.5-1.342 1.164-.084.748-.419 1.498-1.005 1.996-.587.5-1.342.75-2.179.666h-.168l-5.866-4.41-5.615 1.083c-.839.165-1.676-.25-2.012-1-.25-.497-.167-.997 0-1.497.251-.498.588-.831 1.09-.998l7.794-2.245zm-24.89 19.466a2.687 2.687 0 0 1-2.263 0l-6.034-2.496 11.482-27.036 6.033 2.496c.755.331 1.257.831 1.592 1.58a2.627 2.627 0 0 1 0 2.246l-9.134 21.629c-.335.75-.923 1.331-1.676 1.58zm42.74 4.658c-.502.666-1.508.833-2.18.333l-2.346-1.748c-.083-.081-.25-.165-.334-.165l-9.47-7.071c-.587-.417-1.341-.333-1.76.25-.42.581-.335 1.33.251 1.747l10.728 8.068c.334.25.585.583.585 1 .084.414-.083.83-.334 1.164-.251.332-.586.582-1.006.582-.419.083-.838-.084-1.173-.334l-1.76-1.413c-.084-.083-.168-.083-.252-.166l-.251-.25-8.297-6.239c-.586-.416-1.34-.333-1.76.249-.42.583-.334 1.33.252 1.747l8.297 6.239c.335.25.586.583.586 1 .084.414-.084.83-.335 1.164-.251.332-.587.581-1.006.581-.418.084-.838-.083-1.173-.333l-3.352-2.495c-.084-.084-.251-.165-.335-.165-.169-.167-.336-.334-.503-.417l-2.598-1.914c-.587-.415-1.34-.332-1.76.25-.419.583-.335 1.331.25 1.747l2.6 1.913c.334.25.586.583.586 1 .083.414-.084.83-.335 1.164-.251.332-.588.581-1.006.581-.419.084-.838-.083-1.173-.333L29.67 60.53l8.465-20.05 5.029 1.332-1.257.416a4.143 4.143 0 0 0-2.682 2.33 4.242 4.242 0 0 0 0 3.494c.838 1.83 2.766 2.828 4.776 2.496l4.61-.833 19.359 14.642c.336.25.587.583.587.998.084.416-.084.75-.336 1.08zm11.23-6.737c-.586.498-1.341.664-2.178.581-.755-.083-1.51-.498-1.928-1.081L60.68 40.813c-.503-.582-.67-1.331-.587-2.162.084-.75.504-1.498 1.09-1.914l5.112-3.994 18.27 22.878-5.112 4.077z"/>
      <path d="M76.757 53.434a2 2 0 1 1 2.485 3.134 2 2 0 0 1-2.485-3.134"/>
    </g>
  </g>
</svg>
