<svg xmlns="http://www.w3.org/2000/svg" xmlns:xlink="http://www.w3.org/1999/xlink" width="100" height="100">
  <defs>
    <path id="a" d="M45.17.714C24.598.714 7.02 13.532.025 31.61v34.813c5.93 15.318 19.451 26.86 35.962 30.028h18.368c22.332-4.284 39.2-23.891 39.2-47.434"/>
    <path id="c" d="M45.17.714C24.598.714 7.02 13.532.025 31.61v34.813c5.93 15.318 19.451 26.86 35.962 30.028h18.368c22.332-4.284 39.2-23.891 39.2-47.434"/>
    <path id="e" d="M45.17.714C24.598.714 7.02 13.532.025 31.61v34.813c5.93 15.318 19.451 26.86 35.962 30.028h18.368c22.332-4.284 39.2-23.891 39.2-47.434"/>
    <path id="g" d="M45.17.714C24.598.714 7.02 13.532.025 31.61v34.813c5.93 15.318 19.451 26.86 35.962 30.028h18.368c22.332-4.284 39.2-23.891 39.2-47.434"/>
    <path id="i" d="M45.17.714C24.598.714 7.02 13.532.025 31.61v34.813c5.93 15.318 19.451 26.86 35.962 30.028h18.368c22.332-4.284 39.2-23.891 39.2-47.434"/>
    <path id="k" d="M45.17.714C24.598.714 7.02 13.532.025 31.61v34.813c5.93 15.318 19.451 26.86 35.962 30.028h18.368c22.332-4.284 39.2-23.891 39.2-47.434"/>
    <path id="m" d="M45.17.714C24.598.714 7.02 13.532.025 31.61v34.813c5.93 15.318 19.451 26.86 35.962 30.028h18.368c22.332-4.284 39.2-23.891 39.2-47.434"/>
    <path id="o" d="M45.17.714C24.598.714 7.02 13.532.025 31.61v34.813c5.93 15.318 19.451 26.86 35.962 30.028h18.368c22.332-4.284 39.2-23.891 39.2-47.434C93.554 22.341 71.893.714 45.171.714z"/>
    <path id="q" d="M45.17.714C24.598.714 7.02 13.532.025 31.61v34.813c5.93 15.318 19.451 26.86 35.962 30.028h18.368c22.332-4.284 39.2-23.891 39.2-47.434C93.554 22.341 71.893.714 45.171.714z"/>
    <path id="s" d="M45.17.714C24.598.714 7.02 13.532.025 31.61v34.813c5.93 15.318 19.451 26.86 35.962 30.028h18.368c22.332-4.284 39.2-23.891 39.2-47.434C93.554 22.341 71.893.714 45.171.714z"/>
    <path id="u" d="M45.17.714C24.598.714 7.02 13.532.025 31.61v34.813c5.93 15.318 19.451 26.86 35.962 30.028h18.368c22.332-4.284 39.2-23.891 39.2-47.434"/>
    <path id="w" d="M45.17.714C24.598.714 7.02 13.532.025 31.61v34.813c5.93 15.318 19.451 26.86 35.962 30.028h18.368c22.332-4.284 39.2-23.891 39.2-47.434"/>
    <path id="y" d="M45.17.714C24.598.714 7.02 13.532.025 31.61v34.813c5.93 15.318 19.451 26.86 35.962 30.028h18.368c22.332-4.284 39.2-23.891 39.2-47.434"/>
    <path id="A" d="M45.17.714C24.598.714 7.02 13.532.025 31.61v34.813c5.93 15.318 19.451 26.86 35.962 30.028h18.368c22.332-4.284 39.2-23.891 39.2-47.434"/>
    <path id="C" d="M45.374 1C24.697 1 7.032 13.853 0 31.98v34.91C5.96 82.25 19.549 93.824 36.143 97h18.46C77.047 92.705 94 73.043 94 49.436 94 22.686 72.23 1 45.374 1z"/>
  </defs>
  <g fill="none" fill-rule="evenodd">
    <circle cx="50" cy="50" r="50" fill="#F0F0ED" fill-rule="nonzero"/>
    <g transform="translate(5 2)">
      <mask id="b" fill="#fff">
        <use xlink:href="#a"/>
      </mask>
      <path fill="#3DB8BA" d="M145.2 61.226a1.56 1.56 0 0 0-1.57 1.552c0 2.488-3.446 4.59-7.528 4.59-4.08 0-7.529-2.102-7.529-4.59 0-.858-.701-1.552-1.567-1.552a1.56 1.56 0 0 0-1.57 1.552c0 2.488-3.446 4.59-7.526 4.59-4.082 0-7.53-2.102-7.53-4.59a1.56 1.56 0 0 0-1.568-1.552c-.866 0-1.568.694-1.568 1.552 0 2.488-3.448 4.59-7.529 4.59-4.081 0-7.528-2.102-7.528-4.59a1.56 1.56 0 0 0-1.57-1.552 1.56 1.56 0 0 0-1.568 1.552c0 2.488-3.447 4.59-7.528 4.59-4.08 0-7.528-2.102-7.528-4.59a1.56 1.56 0 0 0-1.568-1.552 1.56 1.56 0 0 0-1.569 1.552c0 2.488-3.447 4.59-7.529 4.59s-7.53-2.1-7.53-4.59a1.56 1.56 0 0 0-1.57-1.552c-.865 0-1.568.695-1.568 1.552 0 4.314 4.685 7.693 10.667 7.693 3.893 0 7.236-1.43 9.096-3.621 1.859 2.19 5.204 3.621 9.096 3.621 3.895 0 7.238-1.43 9.098-3.621 1.86 2.19 5.204 3.621 9.096 3.621 3.894 0 7.238-1.43 9.098-3.621 1.86 2.19 5.205 3.621 9.098 3.621 3.892 0 7.236-1.43 9.095-3.621 1.86 2.19 5.204 3.621 9.097 3.621 5.982 0 10.666-3.38 10.666-7.693a1.557 1.557 0 0 0-1.566-1.552" mask="url(#b)"/>
      <mask id="d" fill="#fff">
        <use xlink:href="#c"/>
      </mask>
      <path fill="#3DB8BA" d="M41.95 68.262c-4.535 0-8.57-1.719-11.994-5.11-6.846-6.78-9.964-19.38-9.964-28.217v-.294c0-.962.78-1.742 1.745-1.742.962 0 1.743.78 1.743 1.742v.294c0 8.397 3.07 19.937 8.933 25.744 2.776 2.746 6.049 4.05 9.65 4.099 13.924-.112 18.613-20.54 18.613-29.843v-.294c0-.962.78-1.742 1.743-1.742.964 0 1.745.78 1.745 1.742v.294c0 10.817-5.395 33.192-22.072 33.325l-.142.002" mask="url(#d)"/>
      <mask id="f" fill="#fff">
        <use xlink:href="#e"/>
      </mask>
      <path fill="#3DB8BA" d="M1.393 110.645a1.74 1.74 0 0 1-1.744-1.74C-.35 97 2.753 86.117 8.166 79.039c3.028-3.931 7.507-4.526 11.462-5.049 3.303-.438 6.422-.852 8.64-2.995 1.66-1.613 1.588-4.684 1.308-8.846a1.74 1.74 0 0 1 1.621-1.854c.954-.104 1.793.658 1.858 1.619.277 4.086.59 8.716-2.356 11.581-3.048 2.945-7.068 3.478-10.613 3.947-3.758.498-7.004.93-9.149 3.716-4.956 6.478-7.801 16.59-7.801 27.747a1.74 1.74 0 0 1-1.743 1.74" mask="url(#f)"/>
      <mask id="h" fill="#fff">
        <use xlink:href="#g"/>
      </mask>
      <path fill="#3DB8BA" d="M82.761 110.645a1.74 1.74 0 0 1-1.743-1.74c0-11.156-2.845-21.27-7.806-27.752-2.14-2.781-5.385-3.213-9.144-3.71-3.545-.47-7.562-1.003-10.608-3.946-2.955-2.796-2.652-7.322-2.36-11.699.064-.957.925-1.722 1.856-1.621.962.063 1.69.893 1.625 1.854-.291 4.39-.361 7.386 1.29 8.951 2.234 2.156 5.352 2.57 8.656 3.008 3.954.523 8.433 1.118 11.456 5.044 5.418 7.083 8.521 17.967 8.521 29.87a1.74 1.74 0 0 1-1.743 1.741" mask="url(#h)"/>
      <mask id="j" fill="#fff">
        <use xlink:href="#i"/>
      </mask>
      <path fill="#1D1D1B" d="M15.645 104.507c-.687 0-1.338-.409-1.613-1.082-1.815-4.421-5.477-7.795-10.883-10.033a1.738 1.738 0 0 1-.943-2.274c.37-.89 1.4-1.301 2.28-.942 6.297 2.605 10.595 6.618 12.772 11.927a1.738 1.738 0 0 1-.951 2.272c-.217.09-.442.132-.662.132" mask="url(#j)"/>
      <mask id="l" fill="#fff">
        <use xlink:href="#k"/>
      </mask>
      <path fill="#FEFEFE" d="M68.511 104.507c-.22 0-.445-.042-.662-.132a1.738 1.738 0 0 1-.951-2.272c2.19-5.34 6.49-9.354 12.777-11.929a1.745 1.745 0 0 1 2.275.948A1.738 1.738 0 0 1 81 93.395c-5.466 2.239-9.022 5.52-10.875 10.03a1.744 1.744 0 0 1-1.613 1.082" mask="url(#l)"/>
      <mask id="n" fill="#fff">
        <use xlink:href="#m"/>
      </mask>
      <path fill="#3DB8BA" d="M42.078 82.25c-5.983 0-11.465-3.016-14.662-8.073a1.744 1.744 0 0 1 2.95-1.859 13.79 13.79 0 0 0 11.712 6.45c4.706 0 9.194-2.47 11.712-6.45a1.746 1.746 0 0 1 2.407-.542c.813.514 1.059 1.59.543 2.401-3.151 4.981-8.77 8.073-14.662 8.073" mask="url(#n)"/>
      <g>
        <mask id="p" fill="#fff">
          <use xlink:href="#o"/>
        </mask>
        <path fill="#3DB8BA" d="M59.036 38.545v6c0 .582-.742 1.205-1.846 1.205h-9.527c-.798 0-1.46-.316-1.725-.82l-2.643-5.098a1.342 1.342 0 0 0-1.19-.726h-.004c-.499 0-.956.275-1.19.716l-2.692 5.101c-.266.51-.928.827-1.726.827h-9.527c-1.104 0-1.846-.623-1.846-1.205v-6H22.43v6c0 2.182 1.99 3.892 4.535 3.892h9.527c1.83 0 3.366-.849 4.109-2.265l1.488-2.823 1.463 2.82c.744 1.42 2.28 2.268 4.11 2.268h9.527c2.543 0 4.535-1.71 4.535-3.892v-6h-2.689z" mask="url(#p)"/>
      </g>
      <g>
        <mask id="r" fill="#fff">
          <use xlink:href="#q"/>
        </mask>
        <path fill="#3DB8BA" d="M33.767 48.295l-9.195-9.18 1.465-1.463 9.194 9.18z" mask="url(#r)"/>
      </g>
      <g>
        <mask id="t" fill="#fff">
          <use xlink:href="#s"/>
        </mask>
        <path fill="#3DB8BA" d="M38.665 44.8l-6.308-6.298 1.466-1.462 6.306 6.298z" mask="url(#t)"/>
      </g>
      <g>
        <mask id="v" fill="#fff">
          <use xlink:href="#u"/>
        </mask>
        <path fill="#3DB8BA" d="M48.783 27.172H34.71c-4.647 0-8.428-3.773-8.428-8.413v-6.67c0-.963.781-1.742 1.744-1.742h22.117a1.743 1.743 0 1 1 0 3.484H29.77v4.928c0 2.718 2.217 4.929 4.94 4.929h14.073a1.741 1.741 0 1 1 0 3.484" mask="url(#v)"/>
      </g>
      <g>
        <mask id="x" fill="#fff">
          <use xlink:href="#w"/>
        </mask>
        <path fill="#3DB8BA" d="M22.114 34.55a1.744 1.744 0 0 1-1.742-1.633c-.51-8.139 1.73-14.017 6.652-17.472a1.74 1.74 0 0 1 2.428.423 1.74 1.74 0 0 1-.423 2.427c-2.88 2.021-4.582 5.235-5.081 9.581 1.87-1.743 4.199-3.303 7.024-4.713a1.742 1.742 0 1 1 1.561 3.115c-4.24 2.117-7.162 4.55-8.929 7.439a1.752 1.752 0 0 1-1.49.833" mask="url(#x)"/>
      </g>
      <g>
        <mask id="z" fill="#fff">
          <use xlink:href="#y"/>
        </mask>
        <path fill="#3DB8BA" d="M62.679 34.55a1.747 1.747 0 0 1-1.493-.841c-2.627-4.337-6.8-6.538-12.403-6.538a1.741 1.741 0 1 1 0-3.483c4.682 0 8.658 1.342 11.744 3.928-.78-3.938-2.575-8.3-5.21-11.115-1.657-1.772-3.397-2.67-5.174-2.67a1.742 1.742 0 0 1 0-3.484c2.743 0 5.415 1.306 7.725 3.776 4.746 5.074 6.916 13.475 6.55 18.804a1.74 1.74 0 0 1-1.74 1.623" mask="url(#z)"/>
      </g>
      <g>
        <mask id="B" fill="#fff">
          <use xlink:href="#A"/>
        </mask>
        <path fill="#3DB8BA" d="M30.791 61.226a1.56 1.56 0 0 0-1.569 1.552c0 2.488-3.447 4.59-7.529 4.59-4.08 0-7.529-2.102-7.529-4.59 0-.858-.7-1.552-1.567-1.552a1.56 1.56 0 0 0-1.57 1.552c0 2.488-3.446 4.59-7.526 4.59-4.082 0-7.529-2.102-7.529-4.59a1.56 1.56 0 0 0-1.57-1.552c-.865 0-1.567.694-1.567 1.552 0 2.488-3.448 4.59-7.528 4.59-4.082 0-7.53-2.102-7.53-4.59a1.56 1.56 0 0 0-1.568-1.552 1.56 1.56 0 0 0-1.57 1.552c0 2.488-3.446 4.59-7.526 4.59s-7.53-2.102-7.53-4.59a1.56 1.56 0 0 0-1.567-1.552 1.56 1.56 0 0 0-1.569 1.552c0 2.488-3.447 4.59-7.529 4.59-4.081 0-7.53-2.1-7.53-4.59a1.56 1.56 0 0 0-1.569-1.552c-.866 0-1.569.695-1.569 1.552 0 4.314 4.685 7.693 10.667 7.693 3.893 0 7.236-1.43 9.096-3.621 1.859 2.19 5.205 3.621 9.096 3.621 3.895 0 7.238-1.43 9.098-3.621 1.86 2.19 5.205 3.621 9.096 3.621 3.894 0 7.238-1.43 9.098-3.621 1.86 2.19 5.205 3.621 9.098 3.621 3.892 0 7.236-1.43 9.095-3.621 1.86 2.19 5.204 3.621 9.098 3.621 5.982 0 10.665-3.38 10.665-7.693a1.557 1.557 0 0 0-1.566-1.552" mask="url(#B)"/>
      </g>
      <mask id="D" fill="#fff">
        <use xlink:href="#C"/>
      </mask>
      <path fill="#3DB8BA" d="M15 109h3V75h-3zM26 111h3V74h-3zM56 109h3V75h-3zM67 111h3V77h-3zM22 39h40v-3H22z" mask="url(#D)"/>
    </g>
  </g>
</svg>
