<svg xmlns="http://www.w3.org/2000/svg" xmlns:xlink="http://www.w3.org/1999/xlink" width="130" height="71">
  <defs>
    <path id="a" d="M0 0h130v71H0z"/>
    <path id="c" d="M0 94h148V25H0z"/>
  </defs>
  <g fill="none" fill-rule="evenodd">
    <g>
      <mask id="b" fill="#fff">
        <use xlink:href="#a"/>
      </mask>
      <path fill="#256D86" d="M33.712 50.995c-1.72-1.467-5.235-4.495-8.436-7.434 9.925-8.973 22.401-14.276 35.745-15.218-.153 4.405-.483 9.206-.658 11.57a48.745 48.745 0 0 0-26.651 11.082m35.87-11.108c-.185-2.382-.53-7.189-.695-11.59 13.496.784 26.14 6.02 36.204 14.998-3.214 2.962-6.822 6.072-8.64 7.622-7.65-6.33-16.95-10.149-26.87-11.03m56.59-3.627c.727-.316 1.364-.77 1.954-1.357 2.5-2.438 2.5-6.458 0-8.941a6.42 6.42 0 0 0-9.044 0c-.681.631-1.136 1.443-1.454 2.256-.818 1.22-4.135 6.185-7.271 9.842a33.53 33.53 0 0 1-1.556 1.676c-11.074-9.992-25.066-15.783-39.996-16.561.012-.824.041-1.564.092-2.181.41-4.74 1.597-10.61 1.915-12.01a6.53 6.53 0 0 0 .594-2.663C71.405 2.844 68.543 0 64.999 0c-3.545 0-6.408 2.844-6.408 6.32 0 .814.182 1.626.455 2.303 0 0 1.5 6.953 1.955 12.371.052.629.082 1.385.095 2.227-14.782.943-28.604 6.807-39.537 16.8a36.94 36.94 0 0 1-1.87-1.994c-3.544-4.199-7.452-10.12-7.452-10.12a5.112 5.112 0 0 0-1.319-1.944 6.42 6.42 0 0 0-9.043-.001c-2.5 2.483-2.5 6.5 0 8.939a6.601 6.601 0 0 0 2.272 1.49c1.227.767 6.272 4.107 9.907 7.178.61.508 1.338 1.196 2.134 1.978C9.754 52.98 5.188 61.602 2.725 71h5.333c2.293-7.968 6.253-15.34 11.708-21.75 2.956 3.176 5.972 6.641 7.414 8.31-3.365 4.069-6.013 8.537-7.875 13.44h5.585a44.445 44.445 0 0 1 7.665-11.774L44.385 71h5.64L35.375 56.398c7.343-6.744 16.966-11.043 27.66-11.55V71h3.908V44.831c10.694.427 20.474 4.717 27.887 11.489L80.066 71h5.64l11.915-11.86c3.188 3.488 5.817 7.57 7.744 11.86h5.585c-1.876-4.903-4.55-9.443-7.949-13.534 1.55-1.794 4.654-5.344 7.63-8.525 5.594 6.482 9.647 14.09 11.977 22.059h5.333a64.055 64.055 0 0 0-13.72-25.75 33.889 33.889 0 0 1 1.77-1.618c4.181-3.522 10.18-7.372 10.18-7.372" mask="url(#b)"/>
    </g>
  </g>
</svg>
